<svg id="画像パーツ" xmlns="http://www.w3.org/2000/svg" viewBox="0 0 243.91 26.28"><title>logo</title><circle cx="3.38" cy="4.75" r="3.38" style="fill:#f2a408"/><rect x="0.63" y="10.14" width="5.71" height="12.06" rx="0.7" ry="0.7" style="fill:#8d8d8d"/><circle cx="56.73" cy="4.75" r="3.38" style="fill:#8d8d8d"/><rect x="53.98" y="10.14" width="5.71" height="12.06" rx="0.7" ry="0.7" style="fill:#8d8d8d"/><path d="M5943.59,731.24l-3.17-7v-7.6c-3.25,0-5.89,3.4-5.89,7.6s2.64,7.6,5.89,7.6h2.81A0.4,0.4,0,0,0,5943.59,731.24Z" transform="translate(-5918.91 -709.6)" style="fill:#8d8d8d"/><path d="M5958.71,719.37h-3V709.6h-2.56v22.2h9v-9A3.4,3.4,0,0,0,5958.71,719.37Z" transform="translate(-5918.91 -709.6)" style="fill:#8d8d8d"/><path d="M6009.28,719.83c-0.09-1-1-1.19-.94,0a9.62,9.62,0,0,1-1.64,4.93c-1.27,1.92-3.56,4.63-6.7,4.63-1,0-3.66-.26-3.94-1.88a0.47,0.47,0,0,1,.3-0.51,10.32,10.32,0,0,0,3.74-2.74c1.69-1.94,2.28-6.18-.34-7.87s-8.71,2-8.68,7.4a8.75,8.75,0,0,0,.06,1,0.87,0.87,0,0,1-.4.89,1.43,1.43,0,0,1-.86.1,4,4,0,0,0-1.88-.17,2.35,2.35,0,0,0-2.28,2.71c0.17,1.25,1.59,2,3.29,1.71a3.11,3.11,0,0,0,1.81-.82,2.7,2.7,0,0,1,1.45-.48,0.7,0.7,0,0,1,.58.26,8.19,8.19,0,0,0,6.54,2.86c5.05,0,7.86-4.84,8.68-6.55A11.47,11.47,0,0,0,6009.28,719.83Zm-14.92,4.51c-0.43-1.39-.57-3-0.09-3.84a3.69,3.69,0,0,1,3.5-1.67c1.28,0.31,2.13,2.37.58,4.08a5.2,5.2,0,0,1-3.45,1.79A0.52,0.52,0,0,1,5994.36,724.34Z" transform="translate(-5918.91 -709.6)" style="fill:#f2a408"/><path d="M6026.14,730.34a4.37,4.37,0,0,1-2.43,1.65c-0.34,0-.58-0.26-0.32-1.5l0.27-1.3h0a11,11,0,0,1-2,2.08,2.83,2.83,0,0,1-1.55.72c-0.58,0-1.1-.64-1.1-1.94a5.85,5.85,0,0,1,1.87-4.23,5.43,5.43,0,0,1,2.83-1.23,2.62,2.62,0,0,1,.94.16l0.51-2.54c0.14-.72.06-0.8-0.62-0.8H6024l0-.42a22.92,22.92,0,0,0,2.54-.56c0.16,0,.19.13,0.11,0.46-0.74,3.17-1.39,6.23-2,9.28-0.08.4,0,.56,0.06,0.56a3,3,0,0,0,1.12-.78Zm-2.27-2.34,0.5-2.29a2.1,2.1,0,0,0-1.26-.42,1.7,1.7,0,0,0-1,.3c-1,.77-1.67,2.82-1.67,4.13,0,0.78.22,1.15,0.48,1.15C6021.68,730.88,6023.34,729,6023.87,728Z" transform="translate(-5918.91 -709.6)" style="fill:#606060"/><path d="M6033.18,730.13a4.75,4.75,0,0,1-3.44,1.86c-0.79,0-1.81-.45-1.81-2.35a5.3,5.3,0,0,1,1.92-4.11,4.1,4.1,0,0,1,2.29-.93,1.33,1.33,0,0,1,1.44,1.3c0,1.6-2.66,2.45-4.19,2.85a2.74,2.74,0,0,0,0,.5c0,0.85.27,1.74,1.22,1.74a3.78,3.78,0,0,0,2.34-1.22Zm-2.29-4.69a3.76,3.76,0,0,0-1.44,2.79c2.18-.61,2.83-1.33,2.83-2.1a0.77,0.77,0,0,0-.77-0.86A1.22,1.22,0,0,0,6030.9,725.44Z" transform="translate(-5918.91 -709.6)" style="fill:#606060"/><path d="M6034.57,730.81a0.89,0.89,0,0,1,.5-0.7,0.28,0.28,0,0,1,.42,0,2.1,2.1,0,0,0,1.6,1,0.93,0.93,0,0,0,1-.9,1.73,1.73,0,0,0-1-1.31,2.76,2.76,0,0,1-1.42-2,2,2,0,0,1,.86-1.58,3.17,3.17,0,0,1,1.83-.78,1.19,1.19,0,0,1,1.28.93,0.87,0.87,0,0,1-.43.7,0.24,0.24,0,0,1-.37-0.06,1.66,1.66,0,0,0-1.28-.77,0.81,0.81,0,0,0-.82.85,2,2,0,0,0,1.06,1.39c0.94,0.69,1.38,1.18,1.38,1.9,0,1.25-1.65,2.45-3,2.45A1.68,1.68,0,0,1,6034.57,730.81Z" transform="translate(-5918.91 -709.6)" style="fill:#606060"/><path d="M6044.4,730.36A4.9,4.9,0,0,1,6042,732c-0.35,0-.59-0.27-0.27-1.6l1-4c0.08-.37.1-0.53,0-0.53a3.36,3.36,0,0,0-1.07.67l-0.19-.38a5.45,5.45,0,0,1,2.51-1.55c0.37,0,.38.53,0.19,1.31L6043,730.2c-0.1.42-.06,0.54,0,0.54a3.05,3.05,0,0,0,1.1-.74Zm0.37-8.08a0.94,0.94,0,0,1-.91,1,0.7,0.7,0,0,1-.71-0.75,1,1,0,0,1,.93-1A0.69,0.69,0,0,1,6044.77,722.27Z" transform="translate(-5918.91 -709.6)" style="fill:#606060"/><path d="M6053.33,725a2.47,2.47,0,0,1-1.18.78l-0.38,0a2.79,2.79,0,0,1,.11.85,3.12,3.12,0,0,1-1.18,2.42,5,5,0,0,1-2.13.94,0.7,0.7,0,0,0-.3.46,1.87,1.87,0,0,0,1.15.91c1.57,0.82,2.19,1.44,2.19,2.15,0,1.34-2.27,2.34-3.86,2.34s-2.91-.8-2.9-1.79c0-.7,1-1.41,2.67-2.27a1.06,1.06,0,0,1-.59-0.8,1.59,1.59,0,0,1,1-1,1.76,1.76,0,0,1-1.44-1.94,3.42,3.42,0,0,1,1.36-2.67,3.74,3.74,0,0,1,2.1-.8,2.11,2.11,0,0,1,1.39.45,3.73,3.73,0,0,0,1.84-.38Zm-3,9.06a1.81,1.81,0,0,0-1.12-1.25c-0.53-.3-1-0.56-1.25-0.69-1,.48-1.65,1.1-1.65,1.7,0,0.8,1,1.39,2.11,1.39S6050.32,734.65,6050.32,734Zm0.26-7.38c0-.86-0.34-1.49-1-1.49a1.44,1.44,0,0,0-1.14.77,3.83,3.83,0,0,0-.56,2c0,0.9.4,1.39,1,1.39C6049.65,729.38,6050.58,728.37,6050.58,726.66Z" transform="translate(-5918.91 -709.6)" style="fill:#606060"/><path d="M6061.33,730.4A4.3,4.3,0,0,1,6059,732c-0.4,0-.58-0.42-0.27-1.68s0.56-2.34.83-3.51c0.21-.9.13-1.12-0.11-1.12-0.67,0-2.45,1.92-3.22,3.22-0.19.8-.43,1.79-0.64,2.77a6.62,6.62,0,0,0-1.26.32l-0.11-.13c0.45-1.71.9-3.6,1.3-5.39,0.11-.51.08-0.64,0-0.64a2.81,2.81,0,0,0-1,.72l-0.21-.42a4.47,4.47,0,0,1,2.34-1.54c0.38,0,.46.53,0.16,1.83l-0.3,1.28h0a10.65,10.65,0,0,1,2.83-2.72,2.23,2.23,0,0,1,1.1-.38c0.43,0,.9.26,0.4,2.32-0.24,1.07-.5,2.16-0.75,3.25-0.11.43-.08,0.58,0,0.58a2.51,2.51,0,0,0,1-.74Z" transform="translate(-5918.91 -709.6)" style="fill:#606060"/><path d="M6062.84,730.81a0.89,0.89,0,0,1,.5-0.7,0.28,0.28,0,0,1,.42,0,2.1,2.1,0,0,0,1.6,1,0.93,0.93,0,0,0,1-.9,1.73,1.73,0,0,0-1-1.31,2.76,2.76,0,0,1-1.42-2,2,2,0,0,1,.86-1.58,3.17,3.17,0,0,1,1.83-.78,1.19,1.19,0,0,1,1.28.93,0.87,0.87,0,0,1-.43.7,0.24,0.24,0,0,1-.37-0.06,1.66,1.66,0,0,0-1.28-.77,0.81,0.81,0,0,0-.82.85,2,2,0,0,0,1.06,1.39c0.94,0.69,1.38,1.18,1.38,1.9,0,1.25-1.65,2.45-3,2.45A1.68,1.68,0,0,1,6062.84,730.81Z" transform="translate(-5918.91 -709.6)" style="fill:#606060"/><path d="M6077.31,730.53c0.72-1.09,2.08-3.12,2.08-4.29a1.86,1.86,0,0,0-.19-0.77,0.58,0.58,0,0,1,0-.43,0.85,0.85,0,0,1,.71-0.45,0.79,0.79,0,0,1,.67.91,3.31,3.31,0,0,1-.58,1.71c-0.69,1.23-2,3.2-2.83,4.42a39.19,39.19,0,0,1-2.91,3.79l-1.75.45-0.13-.37a14.73,14.73,0,0,0,3.73-3.49,49,49,0,0,0-.51-5.25c-0.11-.77-0.21-0.94-0.34-0.94a2.32,2.32,0,0,0-.91.91l-0.29-.38c0.54-.85,1.36-1.76,2-1.76s0.72,0.59.86,1.94,0.27,2.58.35,4h0Z" transform="translate(-5918.91 -709.6)" style="fill:#606060"/><path d="M6082,729.48a4.88,4.88,0,0,1,2.42-4.35,4.07,4.07,0,0,1,1.81-.53c1.38,0,2.16.93,2.16,2.51a5.15,5.15,0,0,1-1.71,3.87,4,4,0,0,1-2.51,1C6082.6,732,6082,730.76,6082,729.48Zm3.25,1.76c0.82-.34,1.68-2,1.67-4.13,0-1.28-.53-1.89-1.23-1.89a1.38,1.38,0,0,0-.58.13c-0.58.27-1.63,1.58-1.63,4.08,0,1.18.5,1.9,1.28,1.9A1.25,1.25,0,0,0,6085.28,731.24Z" transform="translate(-5918.91 -709.6)" style="fill:#606060"/><path d="M6097.7,730.32a4.44,4.44,0,0,1-2.4,1.67c-0.38,0-.59-0.35-0.29-1.68,0.13-.51.19-0.85,0.29-1.34h0a11.29,11.29,0,0,1-2.54,2.56,2.28,2.28,0,0,1-1.26.46c-0.45,0-1-.3-0.54-2.1,0.27-1.17.56-2.35,0.83-3.54,0.1-.42.08-0.56,0-0.56a3.66,3.66,0,0,0-1.09.74l-0.19-.42a5,5,0,0,1,2.43-1.52c0.38,0,.46.34,0.21,1.44s-0.58,2.5-.86,3.75c-0.18.78-.06,1.06,0.18,1.06,0.86,0,2.58-2.1,3.15-3.15,0.18-.8.38-1.68,0.59-2.67l1.23-.42h0.18c-0.42,1.68-.85,3.46-1.23,5.51-0.1.51-.08,0.64,0,0.64a3.23,3.23,0,0,0,1.12-.8Z" transform="translate(-5918.91 -709.6)" style="fill:#606060"/><path d="M6099.47,726.18a4.68,4.68,0,0,1,2.31-1.58c0.43,0,.46.7,0.22,1.86l-0.16.78h0c0.8-1.54,1.73-2.64,2.37-2.64a0.83,0.83,0,0,1,.7.42,0.68,0.68,0,0,1,0,.74,1.7,1.7,0,0,1-.45.5,0.26,0.26,0,0,1-.37,0,0.77,0.77,0,0,0-.56-0.29,1.2,1.2,0,0,0-.77.66,9.83,9.83,0,0,0-1.1,2c-0.24,1-.45,2.08-0.64,3.11a8.86,8.86,0,0,0-1.25.3l-0.13-.13c0.42-1.7.85-3.62,1.15-5.33,0.1-.53.1-0.7,0-0.7a3,3,0,0,0-1.1.74Z" transform="translate(-5918.91 -709.6)" style="fill:#606060"/><path d="M6113.61,730.29a4.71,4.71,0,0,1-2.51,1.7c-0.34,0-.61-0.35-0.27-2,0.56-2.59,1.1-5.17,1.65-7.76,0.14-.72.06-0.83-0.66-0.85l-0.43,0,0.06-.4a18.93,18.93,0,0,0,2.46-.56c0.18,0,.18.14,0.11,0.5-0.64,3.06-1.3,6.13-1.94,9.25-0.1.46,0,.58,0,0.58a3.2,3.2,0,0,0,1.23-.85Z" transform="translate(-5918.91 -709.6)" style="fill:#606060"/><path d="M6118.43,730.36A4.9,4.9,0,0,1,6116,732c-0.35,0-.59-0.27-0.27-1.6l1-4c0.08-.37.1-0.53,0-0.53a3.36,3.36,0,0,0-1.07.67l-0.19-.38a5.45,5.45,0,0,1,2.51-1.55c0.37,0,.38.53,0.19,1.31l-1.07,4.29c-0.1.42-.06,0.54,0,0.54a3.05,3.05,0,0,0,1.1-.74Zm0.37-8.08a0.94,0.94,0,0,1-.91,1,0.7,0.7,0,0,1-.71-0.75,1,1,0,0,1,.93-1A0.69,0.69,0,0,1,6118.8,722.27Z" transform="translate(-5918.91 -709.6)" style="fill:#606060"/><path d="M6121.85,724.85a6.57,6.57,0,0,1,1.38-3.14,3.63,3.63,0,0,1,2.35-1.28,0.91,0.91,0,0,1,1,.7,1.11,1.11,0,0,1-.43.7,0.3,0.3,0,0,1-.42,0,1.51,1.51,0,0,0-1-.61c-0.56,0-1,.64-1.49,3.63h1.83l-0.34.53-1.62.14c-0.29,1.71-.46,2.77-0.83,4.55-0.58,2.74-1.2,3.91-2.11,4.83a2.74,2.74,0,0,1-1.79,1,1,1,0,0,1-1-.71,1.11,1.11,0,0,1,.46-0.72,0.2,0.2,0,0,1,.32,0,1.85,1.85,0,0,0,1.06.43,0.83,0.83,0,0,0,.66-0.34c0.18-.24.53-0.9,1-3.89,0.37-2.21.59-3.59,0.85-5.15h-1.31l0-.18,0.5-.48h1Z" transform="translate(-5918.91 -709.6)" style="fill:#606060"/><path d="M6130.59,730.13a4.75,4.75,0,0,1-3.44,1.86c-0.79,0-1.81-.45-1.81-2.35a5.3,5.3,0,0,1,1.92-4.11,4.1,4.1,0,0,1,2.29-.93,1.33,1.33,0,0,1,1.44,1.3c0,1.6-2.66,2.45-4.19,2.85a2.74,2.74,0,0,0,0,.5c0,0.85.27,1.74,1.22,1.74a3.78,3.78,0,0,0,2.34-1.22Zm-2.29-4.69a3.76,3.76,0,0,0-1.44,2.79c2.18-.61,2.83-1.33,2.83-2.1a0.77,0.77,0,0,0-.77-0.86A1.22,1.22,0,0,0,6128.3,725.44Z" transform="translate(-5918.91 -709.6)" style="fill:#606060"/><path d="M6132,730.81a0.89,0.89,0,0,1,.5-0.7,0.28,0.28,0,0,1,.42,0,2.1,2.1,0,0,0,1.6,1,0.93,0.93,0,0,0,1-.9,1.73,1.73,0,0,0-1-1.31,2.76,2.76,0,0,1-1.42-2,2,2,0,0,1,.86-1.58,3.17,3.17,0,0,1,1.83-.78,1.19,1.19,0,0,1,1.28.93,0.87,0.87,0,0,1-.43.7,0.24,0.24,0,0,1-.37-0.06,1.66,1.66,0,0,0-1.28-.77,0.81,0.81,0,0,0-.82.85,2,2,0,0,0,1.06,1.39c0.94,0.69,1.38,1.18,1.38,1.9,0,1.25-1.65,2.45-3,2.45A1.68,1.68,0,0,1,6132,730.81Z" transform="translate(-5918.91 -709.6)" style="fill:#606060"/><path d="M6143,725.43l-1.57.08-0.91,4.34c-0.16.78-.08,1,0.1,1a3.62,3.62,0,0,0,1.41-.91l0.22,0.37c-0.54.66-1.79,1.73-2.64,1.73-0.42,0-.74-0.5-0.38-2.15l0.93-4.34h-1.17l0-.14,0.4-.51h1l0.37-1.5,1.33-1,0.16,0.11-0.56,2.43h1.84Z" transform="translate(-5918.91 -709.6)" style="fill:#606060"/><path d="M6147.68,730.53c0.72-1.09,2.08-3.12,2.08-4.29a1.86,1.86,0,0,0-.19-0.77,0.58,0.58,0,0,1,0-.43,0.85,0.85,0,0,1,.71-0.45,0.79,0.79,0,0,1,.67.91,3.31,3.31,0,0,1-.58,1.71c-0.69,1.23-2,3.2-2.83,4.42a39.19,39.19,0,0,1-2.91,3.79l-1.75.45-0.13-.37a14.73,14.73,0,0,0,3.73-3.49,49,49,0,0,0-.51-5.25c-0.11-.77-0.21-0.94-0.34-0.94a2.32,2.32,0,0,0-.91.91l-0.29-.38c0.54-.85,1.36-1.76,2-1.76s0.72,0.59.86,1.94,0.27,2.58.35,4h0Z" transform="translate(-5918.91 -709.6)" style="fill:#606060"/><path d="M6155.42,730.29a4.71,4.71,0,0,1-2.51,1.7c-0.34,0-.61-0.35-0.27-2,0.56-2.59,1.1-5.17,1.65-7.76,0.14-.72.06-0.83-0.66-0.85l-0.43,0,0.06-.4a18.93,18.93,0,0,0,2.46-.56c0.18,0,.18.14,0.11,0.5-0.64,3.06-1.3,6.13-1.94,9.25-0.1.46,0,.58,0,0.58a3.2,3.2,0,0,0,1.23-.85Z" transform="translate(-5918.91 -709.6)" style="fill:#606060"/><path d="M6162.41,730.13A4.75,4.75,0,0,1,6159,732c-0.79,0-1.81-.45-1.81-2.35a5.3,5.3,0,0,1,1.92-4.11,4.1,4.1,0,0,1,2.29-.93,1.33,1.33,0,0,1,1.44,1.3c0,1.6-2.66,2.45-4.19,2.85a2.74,2.74,0,0,0,0,.5c0,0.85.27,1.74,1.22,1.74a3.78,3.78,0,0,0,2.34-1.22Zm-2.29-4.69a3.76,3.76,0,0,0-1.44,2.79c2.18-.61,2.83-1.33,2.83-2.1a0.77,0.77,0,0,0-.77-0.86A1.22,1.22,0,0,0,6160.13,725.44Z" transform="translate(-5918.91 -709.6)" style="fill:#606060"/></svg>