<?xml version="1.0" encoding="utf-8"?>
<!-- Generator: Adobe Illustrator 19.2.0, SVG Export Plug-In . SVG Version: 6.00 Build 0)  -->
<svg version="1.1" id="画像パーツ" xmlns="http://www.w3.org/2000/svg" xmlns:xlink="http://www.w3.org/1999/xlink" x="0px"
	 y="0px" viewBox="0 0 100 43" style="enable-background:new 0 0 100 43;" xml:space="preserve">
<style type="text/css">
	.st0{fill:#666666;}
	.st1{fill:none;stroke:#666666;stroke-miterlimit:10;}
</style>
<title>nav_faq</title>
<circle class="st0" cx="34.2" cy="32.8" r="1.2"/>
<circle class="st0" cx="49.9" cy="22.2" r="1.2"/>
<circle class="st0" cx="56.1" cy="22.9" r="1.2"/>
<circle class="st0" cx="61.4" cy="22.7" r="1.2"/>
<circle class="st0" cx="61.8" cy="33.1" r="1.2"/>
<polyline class="st1" points="54.4,9.4 52.4,7.2 49.5,6.5 46.7,5.5 43.8,5.3 40.9,5.7 38,6.3 35.4,7.8 33,9.4 30.7,11.4 29.9,14.2 
	29.6,17 29.8,20.3 31,23.5 33.5,25.6 33.8,28.7 34.2,32.3 36.2,29.7 37.8,27.4 40.8,28.8 "/>
<polygon class="st1" points="56,10.6 58.9,11.1 61.9,11.4 64.6,12.9 67.1,14.5 69,16.8 70.1,19.6 70.4,22.4 69.8,25.6 68.6,28.8 
	66.2,31 65.5,34.1 65.3,37.2 63.3,35.4 61.9,32.9 58.9,34.1 56,33.9 53.1,33.6 50.2,33.1 47.5,31.8 44.9,30.4 42.9,28.1 42,25.3 
	41,22.4 41.3,19.4 43,16.8 45.4,15.1 47.6,13.3 50.3,12.1 53.1,11.6 "/>
</svg>
