<?xml version="1.0" encoding="utf-8"?>
<!-- Generator: Adobe Illustrator 19.2.0, SVG Export Plug-In . SVG Version: 6.00 Build 0)  -->
<svg version="1.1" id="画像パーツ" xmlns="http://www.w3.org/2000/svg" xmlns:xlink="http://www.w3.org/1999/xlink" x="0px"
	 y="0px" viewBox="0 0 100 43" style="enable-background:new 0 0 100 43;" xml:space="preserve">
<style type="text/css">
	.st0{fill:none;stroke:#666666;stroke-miterlimit:10;}
	.st1{fill:#666666;}
</style>
<title>house</title>
<polygon class="st0" points="64.1,30.7 58.2,32.7 52,34.4 45.4,35 39.2,36.8 32.8,38.8 31.1,30.8 29.8,22.9 27.4,15.3 33.7,13.9 
	39.8,12 46,10 52.5,9.4 59,7.2 60.8,15.3 62,23.2 "/>
<polygon class="st0" points="38.2,22.7 41,31.6 47.4,30 46.8,25.8 50.7,24.3 51.2,29.5 54.9,28.5 52.2,19.5 44.3,16.7 "/>
<polyline class="st0" points="62,13.1 68.1,14.1 74.3,14.4 73.9,22.5 73.2,30.5 72.2,38.8 63.5,37.2 54.8,36.3 46.2,36.1 "/>
<circle class="st1" cx="26.2" cy="14.9" r="1.2"/>
</svg>
