<?xml version="1.0" encoding="utf-8"?>
<!-- Generator: Adobe Illustrator 19.2.0, SVG Export Plug-In . SVG Version: 6.00 Build 0)  -->
<svg version="1.1" id="画像パーツ" xmlns="http://www.w3.org/2000/svg" xmlns:xlink="http://www.w3.org/1999/xlink" x="0px"
	 y="0px" viewBox="0 0 100 43" style="enable-background:new 0 0 100 43;" xml:space="preserve">
<style type="text/css">
	.st0{fill:none;stroke:#666666;stroke-miterlimit:10;}
</style>
<title>nav_company</title>
<path class="st0" d="M60.8,41.7c-1.1,1.1-1.6-0.3-3.2-0.3s-1.5,0.4-3.1,0.4s-1.5,0-3.1,0c-1.6,0-1.5-0.2-3.1-0.2s-1.5,0.3-3.1,0.3
	c-1.6,0-1.5-0.1-3.1-0.1s-1.9,0.9-3-0.2s-0.2-1.5-0.2-3s0.1-1.5,0.1-3.1s0-1.5,0-3.1s-0.1-1.5-0.1-3.1s0.3-1.5,0.3-3.1
	S39,24.7,39,23.1s-0.1-1.5-0.1-3.1s0.1-1.5,0.1-3.1s0.2-1.5,0.2-3.1S39,12.3,39,10.7s0.2-1.5,0.2-3.1s0-1.5,0-3.1s-1.2-1.9-0.1-3
	c1.1-1.1,1.5,0,3,0s1.5,0.1,3.1,0.1s1.5-0.1,3.1-0.1c1.6,0,1.5,0,3.1,0s1.5-0.4,3.1-0.4s1.5,0,3.1,0s2.1-1,3.2,0.1s-0.3,1.7-0.3,3.2
	s0.1,1.5,0.1,3.1s0.3,1.5,0.3,3.1s-0.2,1.5-0.2,3.1s0.2,1.5,0.2,3.1s0.1,1.5,0.1,3.1s-0.4,1.5-0.4,3.1s0.1,1.5,0.1,3.1
	s0.1,1.5,0.1,3.1s0.1,1.5,0.1,3.1s0.1,1.5,0.1,3.1s-0.6,1.6-0.3,3.1C60.9,40.2,61.9,40.6,60.8,41.7z"/>
<path class="st0" d="M43,13c0-1.4,0.1-1.4,0.1-2.8s-0.9-1.8,0.1-2.8s1.4-0.2,2.8-0.2h2.8"/>
<path class="st0" d="M51.7,13c0-1.4,0.1-1.4,0.1-2.8s-1-1.8,0-2.8s1.4-0.2,2.8-0.2s1.4,0.4,2.8,0.4"/>
<path class="st0" d="M43.3,21.7c0-1.4-0.1-1.4-0.1-2.8s-0.9-1.7,0.1-2.7s1.3,0,2.7,0s1.4-0.1,2.8-0.1"/>
<path class="st0" d="M51.6,21.7c0-1.4,0.1-1.4,0.1-2.8s-0.9-1.8,0.1-2.8s1.4,0.3,2.8,0.3s1.4-0.3,2.8-0.3"/>
<path class="st0" d="M43,30.4c0-1.4,0.4-1.4,0.4-2.8s-1.3-1.9-0.3-2.9s1.5,0.2,2.9,0.2s1.4-0.2,2.8-0.2"/>
<path class="st0" d="M51.6,30.4c0-1.4,0.4-1.4,0.4-2.8s-1-1.7-0.1-2.6c0.9-0.9,1.3-0.3,2.7-0.3S56,25,57.4,25"/>
</svg>
