<?xml version="1.0" encoding="utf-8"?>
<!-- Generator: Adobe Illustrator 19.2.0, SVG Export Plug-In . SVG Version: 6.00 Build 0)  -->
<svg version="1.1" id="画像パーツ" xmlns="http://www.w3.org/2000/svg" xmlns:xlink="http://www.w3.org/1999/xlink" x="0px"
	 y="0px" viewBox="0 0 100 43" style="enable-background:new 0 0 100 43;" xml:space="preserve">
<style type="text/css">
	.st0{fill:none;stroke:#666666;stroke-miterlimit:10;}
	.st1{fill:#666666;}
</style>
<title>ico_01</title>
<polyline class="st0" points="22.1,12.9 25.4,13.8 28,15.9 31.4,16.2 34.3,17.3 37.5,18.4 40.8,18.6 44,19.1 47.2,19.2 50.3,20.1 
	53.5,19.1 56.8,18.9 60,19 63.2,17.8 66.3,17.3 69.7,16.8 72.6,15.3 75.7,14.3 78.6,12.9 "/>
<polyline class="st0" points="37.8,19.1 35.8,21.7 33.3,23.9 31.5,26.1 29.8,23 28,19.7 26.8,16.1 "/>
<polyline class="st0" points="49.7,21.1 48.2,23.9 46.5,26.7 44.2,29.1 42.2,25.9 41,22.4 38.5,19.7 "/>
<polyline class="st0" points="62.2,19.3 60.5,22.5 59.2,25.9 57,28.4 54.8,26.6 53.5,23.5 51,21.4 "/>
<polyline class="st0" points="73.9,15.4 73.7,18.4 72.7,21.1 71.2,23.6 69.8,25.8 67.2,24.3 65.6,21.5 62.8,19.7 "/>
<circle class="st1" cx="22.5" cy="13.5" r="1.2"/>
<circle class="st1" cx="32.2" cy="27.5" r="1.2"/>
<ellipse transform="matrix(0.1595 -0.9872 0.9872 0.1595 18.8183 81.1196)" class="st1" cx="57" cy="29.5" rx="1.2" ry="1.2"/>
</svg>
