<svg id="レイヤー_1" data-name="レイヤー 1" xmlns="http://www.w3.org/2000/svg" viewBox="0 0 100 70"><defs><style>.cls-1{fill:#b1b1b1;}.cls-2{fill:#fff;}</style></defs><title>nav_ichie</title><circle class="cls-1" cx="50.25" cy="34.94" r="32.71" transform="translate(-10.48 42.55) rotate(-41.95)"/><path class="cls-2" d="M27.5,27.76c-1.82,0-3.06-.53-3.06-.9,0-.07,0-.1.07-.1a.8.8,0,0,1,.15.07,1.06,1.06,0,0,0,.59.14,8.86,8.86,0,0,0,6.1-3.64,9.78,9.78,0,0,0,2-4.55.55.55,0,0,0-.2-.46.13.13,0,0,1-.07-.1.11.11,0,0,1,.1-.1s2.59,1,2.61,2.6A8.59,8.59,0,0,1,27.5,27.76Z"/><path class="cls-2" d="M31.87,30.71c0-1.79,0-2-.69-2.08-.07,0-.1-.07-.1-.1s.17-.13.51-.13c3,0,3.18.82,3.2,2l0,3.27a1.45,1.45,0,0,1-1.43,1.47,1.47,1.47,0,0,1-1.49-1.43Z"/><path class="cls-2" d="M50,21.71l.76,0a1.68,1.68,0,0,0,1.44-.58c.52-.49.83-.77,1.44-.73a1.25,1.25,0,0,1,1.26,1.2c0,.59-.51,1.13-1.51,1.07L50,22.52l-3.18-.18-4.41-.25c-.12,0-.62,0-.72,0s-.44-.57-.53-.65-.31-.14-.31-.19.08-.09.13-.09l5.9.33Z"/><path class="cls-2" d="M48,17a4.24,4.24,0,0,1-2.91-1.32.07.07,0,0,1,.08-.07s.44.1.51.1a2.77,2.77,0,0,0,1.88-1c.78-.74,1.12-1.07,1.81-1a1.35,1.35,0,0,1,1.25,1.38A2.52,2.52,0,0,1,48,17Z"/><path class="cls-2" d="M63.34,31l.23-6.09c.06-1.62.07-1.79-.25-2,0-.05-.41-.16-.41-.21s.08-.12.13-.12c3.29.12,3.27.81,3.23,1.67L66,31.1Z"/><path class="cls-2" d="M68.38,31.19a1.74,1.74,0,0,0,1.45-.64c.46-.45.77-.76,1.38-.74A1.28,1.28,0,0,1,72.52,31c0,.57-.49,1.14-1.52,1.1l-12.11-.45-.69,0c-.12,0-.45-.56-.54-.64s-.31-.13-.31-.18.05-.1.13-.09Z"/><path class="cls-2" d="M60.31,21c-.12,0-.59.07-.71.07s-.44-.54-.54-.61-.32-.12-.32-.17,0-.1.12-.1H66.6a1.78,1.78,0,0,0,1.45-.71,1.68,1.68,0,0,1,1.35-.76,1.27,1.27,0,0,1,1.33,1.16c0,.57-.44,1.13-1.48,1.13Z"/><path class="cls-2" d="M31.47,48.73a.58.58,0,0,1-.57.4.59.59,0,0,1-.59-.59.42.42,0,0,1,0-.19l.73-2.25h-.8l-.4,0c-.09,0-.3-.34-.37-.37s-.14-.07-.14-.09,0-.06.07-.06h1.8L31.77,44a1.67,1.67,0,0,0,.13-.57.23.23,0,0,0-.14-.24.07.07,0,0,1,0-.06.06.06,0,0,1,.06-.06c.14,0,1.19.34,1.19,1a1,1,0,0,1,0,.29l-.44,1.32a.82.82,0,0,0,.74-.29c.21-.24.33-.39.59-.39a.61.61,0,0,1,.6.6c0,.26-.17.54-.66.54H32.33Z"/><path class="cls-2" d="M37,51.55a.64.64,0,0,1-.6.64c-.24,0-.36-.1-.69-.4a5.36,5.36,0,0,0-.53-.43A1.93,1.93,0,0,1,33.27,53c-1.13,0-1.39-.76-1.39-1.16a1.51,1.51,0,0,1,1.67-1.37,4.51,4.51,0,0,1,.5,0,3.35,3.35,0,0,0,0-.57c0-1.06,0-1.55,1.16-1.55,0,0,.07,0,.07.06s-.09.07-.1.09-.14.17-.14.46.1,1.36.1,1.59C36.44,50.7,37,51.18,37,51.55Zm-4.34-.21c0,.17.23.31.47.31.49,0,.74-.6.79-.72C33.21,50.85,32.64,51.07,32.64,51.34Z"/><path class="cls-2" d="M38.17,47.86a.87.87,0,0,1-.86-.83c0-.07,0-.37,0-.44,0-.3-.19-.34-.36-.34s-.24,0-.24,0,.74-.14.87-.14c.3,0,1.42,0,1.42,1A.86.86,0,0,1,38.17,47.86Z"/><path class="cls-2" d="M40.05,58.42c-.38,0-.41,0-.42-.07s1.44-.82,1.71-1c5.07-3.54,5.66-10.68,6-14.7.15-2,.26-3.1,1.6-3.25,1.72-.2,1.93,1.66,2,2C51.51,46.65,48.92,57.39,40.05,58.42Z"/><path class="cls-2" d="M61.14,55.51a6.72,6.72,0,0,1-8.58-4c-.1-.24-.14-.32,0-.37s1,.7,1.08.75c1.87,1,3.6.75,6.52,0,.4-.11,2-.55,2.59.77S62.35,55,61.14,55.51Z"/><path class="cls-2" d="M63,43.48c0-.06.37-.11.42-.14,1.12-.54,1.85-2.08,2.83-4.2.48-1,1.19-1.39,1.88-1.26a1.38,1.38,0,0,1,1.14,1.68c-.26,1.37-2.64,4.7-6.18,4A.1.1,0,0,1,63,43.48Z"/><path class="cls-2" d="M68.7,51.06a1.3,1.3,0,0,1-1-1.56c.16-.85.21-1.11-.37-1.22-.06,0-.28-.05-.27-.12s1.1,0,1.23,0c.51.1,2.2.42,1.94,1.8A1.3,1.3,0,0,1,68.7,51.06Z"/><path class="cls-2" d="M69.27,43.91c-.09,0-.46,0-.55,0s-.27-.47-.32-.53-.27-.18-.27-.23,0-.08.12-.07l1.9.36a2,2,0,0,0,1.48-.32,1.85,1.85,0,0,1,1.52-.44,1.59,1.59,0,0,1,1.25,1.94c-.51,2.69-3.18,3.58-5.27,3.19-.26,0-.36-.07-.34-.18s.05-.06.13-.09a4.15,4.15,0,0,0,2.74-3.16Z"/><path class="cls-2" d="M49.88,22.52c-.45,5.81-4.37,6.85-5.89,6.76-.91-.05-1.13-.41-1.13-.53a.07.07,0,0,1,.08-.07s.24.09.29.09c.83,0,3.37-1.68,3.71-6.42l0-.81,0-.81c.08-1.35.06-1.5-.15-1.76,0-.05-.43-.17-.43-.25s.5-.1.69-.08c2.9.16,2.83,1.29,2.78,2.25l0,.81Z"/></svg>